<?xml version="1.0" standalone="no"?><!DOCTYPE svg PUBLIC "-//W3C//DTD SVG 1.1//EN" "http://www.w3.org/Graphics/SVG/1.1/DTD/svg11.dtd"><svg t="1660320569405" class="icon" viewBox="0 0 1024 1024" version="1.1" xmlns="http://www.w3.org/2000/svg" p-id="17428" data-spm-anchor-id="a313x.7781069.0.i183" xmlns:xlink="http://www.w3.org/1999/xlink" width="128" height="128"><defs><style type="text/css">@font-face { font-family: feedback-iconfont; src: url("//at.alicdn.com/t/font_1031158_u69w8yhxdu.woff2?t=1630033759944") format("woff2"), url("//at.alicdn.com/t/font_1031158_u69w8yhxdu.woff?t=1630033759944") format("woff"), url("//at.alicdn.com/t/font_1031158_u69w8yhxdu.ttf?t=1630033759944") format("truetype"); }
</style></defs><path d="M435.5 958.7c-16.2 0-31.3-8.7-39.4-23L129.9 463.5l52.3-29.5 249.4 442.2 50.1-164.6 232.3 0.8-1.4-230 163.7-50-443-249.5 29.4-52.3 473 266.4c15.8 8.9 24.8 26.3 22.8 44.3-2 18-14.4 33.1-31.8 38.4l-153.9 47 1.1 195c0.1 13.5-5.1 26.3-14.7 35.8-9.5 9.5-22.2 14.8-35.6 14.8h-0.2l-197.4-0.5-47.1 154.9c-5.3 17.4-20.3 29.8-38.4 31.8-1.7 0.2-3.3 0.2-5 0.2z" fill="#1296db" p-id="17429" data-spm-anchor-id="a313x.7781069.0.i186" class="selected"></path><path d="M577.9 230L229.2 578.7" fill="#e8f7ff" p-id="17430"></path><path d="M207.993 557.455l348.67-348.671 42.427 42.426-348.671 348.67z" fill="#1296db" p-id="17431" data-spm-anchor-id="a313x.7781069.0.i184" class="selected"></path><path d="M693.7 295.2L294.5 694.4" fill="#e8f7ff" p-id="17432"></path><path d="M273.262 673.237L672.49 274.008l42.426 42.426-399.228 399.23z" fill="#1296db" p-id="17433" data-spm-anchor-id="a313x.7781069.0.i185" class="selected"></path><path d="M721.6 720L303.9 300.9" fill="#e8f7ff" p-id="17434"></path><path d="M282.622 322.095l42.498-42.36 417.74 419.101-42.498 42.36z" fill="#1296db" p-id="17435" data-spm-anchor-id="a313x.7781069.0.i182" class="selected"></path><path d="M156 448.8c-80.6-80.6-80.6-211.3 0-292s211.3-80.6 292 0l-292 292z" fill="#e8f7ff" p-id="17436" data-spm-anchor-id="a313x.7781069.0.i181" class=""></path><path d="M156 491.2L134.8 470c-44.7-44.7-69.3-104-69.3-167.2s24.6-122.5 69.3-167.2c44.7-44.7 104-69.3 167.2-69.3s122.5 24.6 167.2 69.3l21.2 21.2L156 491.2z m146-364.8c-45.2 0-90.4 17.2-124.8 51.6-33.3 33.3-51.7 77.6-51.7 124.8 0 37 11.3 72.2 32.3 101.8l246-246c-30.4-21.5-66.1-32.2-101.8-32.2z" fill="#1296db" p-id="17437" data-spm-anchor-id="a313x.7781069.0.i187" class="selected"></path></svg>