<?xml version="1.0" standalone="no"?><!DOCTYPE svg PUBLIC "-//W3C//DTD SVG 1.1//EN" "http://www.w3.org/Graphics/SVG/1.1/DTD/svg11.dtd"><svg t="1657700647317" class="icon" viewBox="0 0 1024 1024" version="1.1" xmlns="http://www.w3.org/2000/svg" p-id="1825" xmlns:xlink="http://www.w3.org/1999/xlink" width="128" height="128"><defs><style type="text/css">@font-face { font-family: feedback-iconfont; src: url("//at.alicdn.com/t/font_1031158_u69w8yhxdu.woff2?t=1630033759944") format("woff2"), url("//at.alicdn.com/t/font_1031158_u69w8yhxdu.woff?t=1630033759944") format("woff"), url("//at.alicdn.com/t/font_1031158_u69w8yhxdu.ttf?t=1630033759944") format("truetype"); }
</style></defs><path d="M512 256.6m-117 0a117 117 0 1 0 234 0 117 117 0 1 0-234 0Z" fill="#1296db" p-id="1826"></path><path d="M788.3 637.8L732 589.9c-1.5-1.9-2.9-3.7-4.4-5.6l-86.8-177c-3.3-6.7-10.1-11-17.7-11H400.8c-7.5 0-14.3 4.3-17.7 11l-86.8 177c-1.5 1.9-2.9 3.7-4.4 5.6l-56.3 47.9c-18.4 15.7-20.6 43.3-5 61.7 15.7 18.4 43.3 20.6 61.7 5l70.2-59.7c1.5-1.9 2.9-3.7 4.4-5.6l21.6-44.1V697c0 5.2-2.1 10.2-5.7 13.9L301.9 792c-34.1 34.2-9.9 92.5 38.4 92.5h99.3c-17.2-18.9-25.5-46-16.7-75.1 9.9-32.7 42.1-53.6 76.2-53.6h74.5c6.8 0 12.3 5.5 12.3 12.3 0 6.8-5.5 12.3-12.3 12.3h-77.2c-28.9 0-52.5 23.6-52.5 52.5 0 27.4 21.4 49.4 48.3 51.7h191.5c48.3 0 72.5-58.3 38.4-92.5L641.2 711c-3.7-3.7-5.7-8.7-5.7-13.9V595l21.6 44.1c1.5 1.9 2.9 3.7 4.4 5.6l70.2 59.7c18.4 15.6 46 13.4 61.7-5 15.5-18.3 13.3-45.9-5.1-61.6z" fill="#1296db" p-id="1827"></path></svg>